# xmcd
#
# Track frame offsets:
# 150
# 14672
# 26186
# 36899
# 54579
# 64440
# 73605
# 84472
# 98427
# 107435
# 121159
# 135387
# 146608
# 163278
# 178912
# 192629
# 202047
# 218740
# 236295
# 246668
# 259065
# 276569
# 288661
# 303170
#
# Disc length: 4263 seconds
#
#
# Revision: 0
# Processed by: cddbd v1.5.1PL2 Copyright (c) Steve Scherf et al.
# Submitted via: FreeRIP 2.944 
#
DISCID=7610a518
DTITLE=Taviano e Tavares - Dose Dupla
DYEAR=1900
DGENRE=Sertanejo
TTITLE0=Prato do dia
TTITLE1=O trabalho
TTITLE2=A saudade dói
TTITLE3=Fazenda Morajuba
TTITLE4=Mar de amor
TTITLE5=O X
TTITLE6=Chapéu furado
TTITLE7=Ninguém será ninguém
TTITLE8=Punhal do desprezo
TTITLE9=Faso milionário
TTITLE10=Uma vida sem amor
TTITLE11=Até as pedras se encontram
TTITLE12=Rei da exposição
TTITLE13=Aonde moram meus pais
TTITLE14=Duas estudantes
TTITLE15=Minha vizinhas
TTITLE16=O bom nordestino
TTITLE17=Pequeno não é pedaço
TTITLE18=Choro dela
TTITLE19=Loirinha
TTITLE20=Velho pouso de boiada
TTITLE21=Capital do barão
TTITLE22=Cabo mesquita
TTITLE23=Dois de outubro
EXTD=
EXTT0=
EXTT1=
EXTT2=
EXTT3=
EXTT4=
EXTT5=
EXTT6=
EXTT7=
EXTT8=
EXTT9=
EXTT10=
EXTT11=
EXTT12=
EXTT13=
EXTT14=
EXTT15=
EXTT16=
EXTT17=
EXTT18=
EXTT19=
EXTT20=
EXTT21=
EXTT22=
EXTT23=
PLAYORDER=
